<svg xmlns="http://www.w3.org/2000/svg" width="63" height="46" fill="none"><path fill="#AFB1B8" d="M4.75 37.73c.25.28.38.62.37.98.01.23-.03.46-.13.67-.1.22-.25.41-.44.56-.47.33-1.06.49-1.65.45H0V34.2h2.84c.56-.03 1.12.11 1.57.41.19.14.33.32.43.52.1.2.14.42.13.64.01.34-.1.68-.33.95-.22.24-.53.41-.87.48.39.07.73.25.98.53Zm-3.4-.93h1.21c.28.01.55-.06.77-.21.1-.08.17-.17.21-.27.05-.11.07-.22.06-.34 0-.11-.01-.22-.06-.32a.69.69 0 0 0-.2-.28 1.24 1.24 0 0 0-.8-.21H1.35v1.63Zm2.1 2.37c.1-.08.18-.17.23-.28.05-.11.07-.23.06-.35a.615.615 0 0 0-.07-.35.672.672 0 0 0-.22-.28 1.28 1.28 0 0 0-.83-.23H1.35v1.7h1.29c.29.02.58-.06.81-.21ZM10.57 40.39l-1.59-2.42h-.59v2.42H7.03V34.2H9.6c.65-.04 1.3.15 1.8.53.36.33.58.78.61 1.25.04.47-.11.93-.42 1.31-.32.33-.75.55-1.23.63l1.69 2.47h-1.48Zm-2.18-3.26H9.5c.78 0 1.16-.31 1.16-.94a.781.781 0 0 0-.06-.37c-.05-.12-.12-.23-.22-.33-.25-.18-.56-.27-.88-.25H8.38l.01 1.89ZM18.01 39.15h-2.72l-.48 1.24h-1.42l2.49-6.12h1.54l2.48 6.12h-1.43l-.46-1.24Zm-.37-.94-.99-2.62-.99 2.62h1.98ZM27.32 40.39h-1.35l-3.03-4.21v4.21h-1.35V34.2h1.35l3.03 4.23V34.2h1.35v6.19ZM35.03 38.91c-.28.47-.71.85-1.22 1.09-.59.27-1.25.41-1.9.39H29.5V34.2h2.41c.65-.02 1.31.12 1.9.38.51.24.94.62 1.22 1.08.28.5.42 1.06.42 1.63 0 .56-.14 1.12-.42 1.62Zm-1.55-.15c.39-.41.6-.93.6-1.48 0-.54-.21-1.06-.6-1.47-.46-.38-1.07-.57-1.69-.53h-.94v4.01h.94c.62.03 1.23-.16 1.69-.53ZM18.85-.24s17.44 6.03 17.07 14.75v14.76s-17.43-6.03-17.06-14.76L18.85-.24ZM51.46 25.81c3.29-2.07 7.1-3.36 11.07-3.74v-4.61c-4.58 1.61-8.46 4.54-11.07 8.35Z"/><path fill="#AFB1B8" d="M49.48 27.2c2.69-4.97 7.37-8.8 13.06-10.71V3.18S37.7 11.77 38.23 24.19V45.2s1.1-.39 2.84-1.11c0-.67 0-1.35.08-2.03.52-5.77 3.51-11.11 8.33-14.86Z"/><path fill="#AFB1B8" d="M47.11 35.01c.14-1.46.43-2.9.87-4.3-3 3.23-4.81 7.25-5.19 11.48-.04.39-.06.79-.07 1.21 1.42-.62 3.06-1.4 4.78-2.31-.44-2-.57-4.05-.39-6.08ZM48.1 35.08c-.16 1.84-.06 3.7.31 5.51 6.78-3.72 14.41-9.46 14.12-16.4v-.61c-4.85.5-9.39 2.44-12.91 5.53-.83 1.91-1.34 3.92-1.52 5.97Z"/></svg>