<svg xmlns="http://www.w3.org/2000/svg" width="40" height="52" fill="none"><path fill="#AFB1B8" fill-rule="evenodd" d="M16.977 2.935h.137c.253 0 .526.025.796.048a22.62 22.62 0 0 1 3.542.534V.654A21.1 21.1 0 0 0 17.797.07 29.31 29.31 0 0 0 16.319 0h-.427c-2.475.01-4.94.327-7.336.946-2.73.68-5.351 1.747-7.784 3.166v28.396a31.64 31.64 0 0 1 7.42-2.89 32.37 32.37 0 0 1 6.227-.957h.084c.352-.018.703-.028 1.065-.03v-2.91a34.329 34.329 0 0 0-8.095 1.076c-.98.255-1.925.53-2.813.834l-1.012.344V5.833l.432-.208a28.28 28.28 0 0 1 10.517-2.683.628.628 0 0 1 .09 0c.403-.02.808-.03 1.205-.03h.455c.21.005.42.01.63.023Zm5.176 2.926a25.9 25.9 0 0 0 1.958.072 31.468 31.468 0 0 0 7.713-.99 31.775 31.775 0 0 0 7.417-2.893v27.89a29.816 29.816 0 0 1-7.786 3.166 29.939 29.939 0 0 1-7.337.944 22.405 22.405 0 0 1-5.565-.657V5.323c.43.099.873.19 1.323.266.739.125 1.518.216 2.277.272Zm14.194.217-1.012.34a44.62 44.62 0 0 1-2.813.842 34.262 34.262 0 0 1-8.406 1.078c-.66 0-1.267-.018-1.854-.056l-.807-.053v22.777l.693.06a22.85 22.85 0 0 0 1.973.085 26.889 26.889 0 0 0 6.62-.857 27.767 27.767 0 0 0 5.173-1.86l.433-.208V6.078Z" clip-rule="evenodd"/><path fill="#AFB1B8" d="M2.73 42.21c-.14-.15-.32-.27-.51-.35-.2-.08-.4-.12-.61-.11-.23 0-.45.04-.65.12-.19.08-.37.19-.51.34a1.6 1.6 0 0 0-.33.51c-.08.2-.11.41-.11.62v3.8c-.01.27.04.53.15.78.09.19.22.36.38.5.15.13.33.22.52.27.18.06.37.08.56.08.22.01.42-.04.62-.13.19-.08.36-.2.5-.35.14-.15.26-.32.33-.51.08-.19.13-.4.13-.6v-.43h-1v.34c.01.12-.01.23-.05.34a.8.8 0 0 1-.15.21.53.53 0 0 1-.21.11c-.06.02-.13.04-.2.04a.57.57 0 0 1-.26-.04.443.443 0 0 1-.21-.17.905.905 0 0 1-.13-.51v-3.53c-.01-.2.03-.39.12-.57a.539.539 0 0 1 .49-.23c.08 0 .17.02.24.05.08.04.15.1.2.17.11.14.17.32.16.5v.33h.98v-.38c.01-.23-.03-.46-.12-.67-.07-.2-.18-.38-.33-.53ZM8.62 42.16c-.31-.26-.71-.41-1.12-.41-.21 0-.41.03-.6.1s-.37.18-.52.31c-.16.15-.3.33-.38.54-.1.23-.15.48-.15.73v3.64c-.01.26.04.51.15.74.09.2.22.37.38.51.15.14.33.25.52.32s.39.11.6.11a1.713 1.713 0 0 0 1.12-.43c.16-.14.29-.31.38-.51.1-.23.15-.48.14-.74v-3.64a1.668 1.668 0 0 0-.52-1.27Zm-.46 4.91c.01.1 0 .19-.04.29-.03.09-.09.17-.16.24-.13.11-.29.17-.46.17-.17 0-.34-.06-.47-.17a.776.776 0 0 1-.16-.24.728.728 0 0 1-.04-.29v-3.64c-.01-.1.01-.19.04-.29.04-.09.09-.17.16-.24.13-.11.3-.17.47-.17.17 0 .33.06.46.17.07.07.13.15.16.24.04.1.05.19.04.29v3.64ZM16.36 48.69v-6.88h-.95l-1.25 3.64h-.02l-1.26-3.64h-.95v6.88h.99V44.5h.01l.97 2.97h.49l.97-2.97h.02v4.19h.98ZM21.95 42.29c-.15-.17-.34-.3-.55-.38-.23-.07-.47-.11-.72-.1h-1.46v6.88h.98V46h.51c.3.02.61-.05.88-.18.23-.13.41-.31.54-.53.12-.18.19-.39.23-.6.04-.26.05-.52.05-.78.01-.33-.02-.67-.1-.99-.06-.24-.19-.45-.36-.63Zm-.5 2.1c-.01.12-.04.25-.09.36-.06.1-.15.19-.26.24-.14.06-.3.09-.46.09h-.45v-2.35h.51c.15 0 .3.03.44.09.1.06.18.15.23.25.05.13.08.26.09.39v.46c0 .16.01.32 0 .47h-.01ZM26.6 41.81h-.8l-1.52 6.88h.98l.29-1.48h1.34l.29 1.48h.98l-1.56-6.88Zm-.9 4.47.48-2.5h.02l.48 2.5h-.98ZM32.94 45.96h-.01l-1.49-4.15h-.94v6.88h.98v-4.14h.02l1.5 4.14h.93v-6.88h-.99v4.15ZM38.94 41.81l-.79 2.73h-.02l-.79-2.73H36.3l1.35 3.97v2.91h.98v-2.91l1.35-3.97h-1.04ZM0 50.64h.47v1.33h.32v-1.33h.47v-.27H0v.27ZM3.97 50.37l-.62 1.6h.34l.13-.37h.64l.14.37h.35l-.64-1.6h-.34Zm-.05.96.22-.59.22.59h-.44ZM7.9 51.38h.37v.2c-.11.09-.24.14-.38.14-.06 0-.13-.01-.19-.04a.388.388 0 0 1-.15-.11.787.787 0 0 1-.12-.42c0-.36.16-.54.47-.54.08 0 .16.02.22.06.07.05.12.12.14.2l.31-.06c-.06-.32-.29-.47-.67-.47a.804.804 0 0 0-.56.2c-.08.08-.15.18-.19.29-.04.1-.05.22-.04.33-.01.22.06.43.2.6.08.08.17.14.28.18.1.04.22.06.33.05.25.01.49-.08.68-.25v-.63h-.7v.27ZM11.92 50.37h-.33v1.6h1.12v-.27h-.79v-1.33Z"/><path fill="#AFB1B8" fill-rule="evenodd" d="M14.99 50.37h.32v1.6h-.32v-1.6Z"/><path fill="#AFB1B8" d="m18.63 51.44-.65-1.07h-.32v1.6h.3v-1.05l.65 1.05h.32v-1.6h-.3v1.07ZM21.63 51.26h.8v-.27h-.8v-.35h.86v-.27h-1.18v1.6h1.21v-.27h-.89v-.44ZM28.91 51h-.63v-.63h-.32v1.6h.32v-.7h.63v.7h.32v-1.6h-.32V51ZM31.93 51.26h.79v-.27h-.79v-.35h.86v-.27H31.6v1.6h1.22v-.27h-.89v-.44ZM36.02 51.26c.28-.04.42-.19.42-.44a.34.34 0 0 0-.03-.2.401.401 0 0 0-.13-.16.943.943 0 0 0-.47-.09h-.67v1.6h.32v-.67h.06c.07-.01.14.01.2.03.05.03.09.07.11.12l.35.51h.39l-.2-.31c-.08-.16-.21-.29-.35-.39Zm-.33-.22h-.23v-.4h.25c.11-.01.22 0 .33.04.02.02.04.04.05.07.01.03.02.06.02.09-.01.04-.01.07-.03.09-.01.03-.03.05-.06.07-.1.04-.22.05-.33.04ZM39.1 51.26h.8v-.27h-.8v-.35h.86v-.27h-1.18v1.6H40v-.27h-.9v-.44Z"/></svg>