<svg xmlns="http://www.w3.org/2000/svg" width="85" height="41" fill="none"><path fill="#2196F3" fill-rule="evenodd" d="M13.14 12.1c2.4 0 4.34 1.73 4.34 3.86s-1.94 3.86-4.34 3.86-4.34-1.73-4.34-3.86 1.94-3.86 4.34-3.86Z"/><path fill="#2196F3" d="M45.19 10.86c-.01-2.96-1.33-5.79-3.69-7.89C39.15.88 35.96-.3 32.62-.31 29.29-.3 26.1.88 23.74 2.97c-2.35 2.1-3.68 4.93-3.69 7.89v16.33s25.14-2.49 25.14-16.32v-.01ZM0 32.54c0 2.06.92 4.04 2.56 5.49 1.64 1.46 3.86 2.28 6.18 2.29 2.32-.01 4.54-.83 6.17-2.28 1.64-1.46 2.57-3.43 2.57-5.49V21.19S0 22.92 0 32.54Zm8.74 2.04c-.45 0-.9-.12-1.27-.34-.38-.23-.67-.54-.85-.92a1.89 1.89 0 0 1-.13-1.17c.09-.4.31-.76.63-1.04.32-.29.73-.48 1.17-.56.45-.08.91-.04 1.33.11.41.16.77.42 1.02.75.25.34.39.73.39 1.13 0 .27-.06.54-.17.79a2.205 2.205 0 0 1-1.24 1.1c-.28.1-.58.16-.88.16v-.01Z"/><path fill="#2196F3" fill-rule="evenodd" d="M30.41 34.27q.23-.47.23-1.1v-.19q0-.63-.23-1.11-.17-.36-.45-.6-.09-.07-.19-.14-.09-.05-.18-.09-.35-.16-.77-.16-.42 0-.77.16-.09.04-.18.09-.1.07-.19.14-.28.24-.45.6-.23.48-.23 1.11v.21q.01.61.24 1.09.16.34.43.57.1.09.21.16.09.05.19.1.35.15.76.15.43 0 .78-.17.09-.04.17-.09.11-.07.22-.16.25-.23.41-.57Zm3-.46q.08.11.08.27 0 .13-.06.23-.04.07-.12.13-.17.13-.49.13-.49 0-.7-.25-.14-.17-.14-.46h-.88q0 .31.12.56.04.09.09.17l.01.01q.21.3.61.48t.89.18q.71 0 1.13-.31.18-.14.28-.32.14-.24.14-.55 0-.28-.11-.51-.08-.18-.23-.32-.35-.34-1.1-.56-.4-.13-.61-.27-.15-.1-.19-.23-.02-.06-.02-.12 0-.11.04-.19.05-.1.14-.17.18-.13.5-.13.33 0 .52.16.04.04.08.09.1.15.1.37h.88q0-.27-.09-.49-.05-.1-.11-.2-.04-.06-.09-.12-.18-.22-.46-.35-.36-.16-.82-.16-.45 0-.82.15-.36.15-.56.42-.08.11-.12.24-.07.18-.07.38t.06.38q.16.4.67.68.26.14.72.29.46.15.63.28.06.05.1.11Zm34.32 0q.08.11.08.27 0 .13-.06.23-.04.07-.12.13-.18.13-.49.13-.49 0-.7-.25-.14-.17-.14-.46h-.88q0 .31.11.56.04.09.1.17l.01.01q.21.3.6.48.41.18.9.18.71 0 1.13-.31.18-.14.28-.32.14-.24.14-.55 0-.28-.11-.51-.09-.18-.23-.32-.35-.34-1.1-.56-.4-.13-.61-.27-.15-.1-.2-.23-.01-.06-.01-.12 0-.11.04-.19.04-.1.14-.17.17-.13.5-.13.33 0 .51.16.05.04.09.09.1.15.1.37h.88q0-.27-.1-.49-.04-.1-.1-.2-.04-.06-.09-.12-.18-.22-.46-.35-.36-.16-.82-.16-.45 0-.82.15-.36.15-.56.42-.08.11-.12.24-.07.18-.07.38t.06.38q.16.4.66.68.27.14.73.29.45.15.63.28.06.05.1.11Zm-43-.35h1.68v-.71h-1.68v-1.1h1.89v-.71h-2.77v4.26h.88v-1.74Zm12.14-1.81h1.31v-.71H34.7v.71h1.29v3.55h.88v-3.55Zm2.69 1.7h1.68v-.69h-1.68v-1.01h1.97v-.71h-2.85v4.26h2.86v-.7h-1.98v-1.15Zm3.37.29h.7l.8 1.56h.94v-.04l-.92-1.74q.38-.17.57-.47.19-.29.19-.72t-.2-.73q-.08-.12-.21-.23-.41-.33-1.16-.33h-1.59v4.26h.88v-1.56Zm5.32 1.56v-1.5h.77q.76 0 1.19-.36.15-.13.25-.29.18-.29.18-.7 0-.33-.12-.6-.03-.07-.07-.14-.06-.09-.14-.18-.17-.19-.43-.32-.36-.17-.84-.17h-1.67v4.26h.88Zm3.87-1.85h1.69v-.69h-1.69v-1.01h1.98v-.71h-2.86v4.26h2.86v-.7h-1.98v-1.15Zm4.46-1.7h1.31v-.71h-3.48v.71h1.29v3.55h.88v-3.55Zm2.69 1.7h1.69v-.69h-1.69v-1.01h1.97v-.71h-2.85v4.26h2.86v-.7h-1.98v-1.15Zm3.37.29h.7l.8 1.56h.95v-.04l-.93-1.74q.39-.17.58-.47.19-.29.19-.72t-.2-.73q-.09-.12-.21-.23-.41-.33-1.17-.33h-1.58v4.26h.87v-1.56Zm-33.13-1.69q.24.35.24 1.02v.21q-.01.67-.24 1.01-.11.16-.25.24-.19.11-.43.11-.25 0-.43-.11-.16-.09-.26-.25-.24-.36-.24-1.01v-.21q0-.67.24-1.01.1-.15.25-.24.18-.11.43-.11t.43.11q.15.09.26.24Zm14.13.98h-.71v-1.28h.71q.35 0 .52.17.03.03.05.06.12.16.12.42 0 .22-.1.37-.04.05-.08.09l-.01.01q-.18.16-.5.16Zm5.4.06h-.79v-1.34h.81q.26 0 .43.13.04.03.08.07.04.04.07.09.11.17.11.41 0 .25-.11.4-.03.04-.07.07-.18.17-.53.17Zm14.31-.06h-.71v-1.28h.71q.35 0 .53.17l.04.06q.13.16.13.42 0 .22-.11.37-.03.05-.07.09-.01 0-.01.01-.18.16-.51.16Z"/></svg>