<svg xmlns="http://www.w3.org/2000/svg" width="44" height="41" fill="none"><path fill="#AFB1B8" d="M6.4 40.1c.02 0 .03 0 .05.01.01 0 .02.01.04.02l.21.21c-.17.17-.37.3-.61.39-.27.1-.57.15-.87.15-.28 0-.56-.04-.82-.14-.23-.08-.44-.21-.61-.37-.18-.17-.31-.37-.4-.58-.1-.24-.14-.49-.14-.74s.05-.51.15-.74c.09-.22.24-.42.42-.58.19-.17.41-.29.66-.38.26-.09.55-.14.84-.13a2.057 2.057 0 0 1 1.37.45l-.19.23-.04.04c-.02.01-.05.01-.08.01-.02 0-.05-.01-.07-.02l-.1-.06-.14-.08c-.06-.02-.12-.05-.18-.07-.08-.03-.17-.04-.25-.06-.11-.02-.22-.02-.32-.02-.21-.01-.42.03-.61.1-.18.06-.34.15-.47.28a1.346 1.346 0 0 0-.42 1.03c-.01.2.03.4.11.6.06.16.17.31.3.44.13.12.28.21.45.27.18.07.37.1.57.1.11 0 .22-.01.33-.02.18-.02.35-.07.5-.16.08-.04.15-.09.22-.15.03-.02.06-.03.1-.03ZM12.7 39.05c0 .25-.05.5-.15.74-.09.21-.23.4-.41.57-.18.16-.4.29-.64.37-.54.18-1.13.18-1.66 0-.24-.08-.46-.21-.64-.37-.18-.17-.32-.37-.42-.58-.19-.48-.19-1 0-1.48.1-.21.24-.41.42-.58.18-.16.4-.28.64-.36.53-.18 1.12-.18 1.66 0 .24.09.46.21.64.38.18.16.32.35.41.57.1.23.15.49.15.74Zm-.57 0c0-.2-.03-.4-.11-.59-.06-.17-.16-.32-.29-.45a1.42 1.42 0 0 0-.46-.28c-.39-.13-.82-.13-1.2 0-.18.07-.34.16-.47.28-.13.13-.23.28-.29.45-.14.38-.14.8 0 1.18.06.16.16.32.29.44.13.13.29.22.47.28.38.13.81.13 1.2 0 .18-.06.33-.15.46-.28.13-.12.23-.28.29-.44.08-.19.11-.39.11-.59ZM17 39.67l.05.13c.03-.04.04-.09.07-.13.02-.04.04-.09.07-.13l1.39-2.2c.03-.04.05-.06.08-.07.04-.01.08-.01.11-.01h.42v3.58h-.49v-2.87l-1.4 2.23c-.02.04-.05.06-.09.08-.03.02-.07.03-.12.03h-.07c-.05 0-.09-.01-.12-.03-.04-.02-.07-.04-.09-.08l-1.44-2.24v2.87h-.47v-3.57h.41c.04 0 .08 0 .12.01.03.01.06.04.07.07l1.43 2.2c.02.04.05.09.07.13ZM22.24 39.49v1.34h-.55v-3.57h1.22c.23-.01.46.02.68.08.18.04.34.12.48.22a1.001 1.001 0 0 1 .36.81c.01.15-.03.31-.1.45a.91.91 0 0 1-.29.36c-.14.11-.31.19-.48.24-.22.06-.44.09-.66.08l-.66-.01Zm0-.38h.66c.14 0 .29-.02.42-.06.11-.03.22-.08.31-.15a.69.69 0 0 0 .18-.24c.05-.09.07-.19.07-.3 0-.1-.01-.2-.06-.29a.614.614 0 0 0-.19-.24 1.24 1.24 0 0 0-.73-.2h-.66v1.48ZM29.57 40.84h-.43c-.05 0-.09-.01-.12-.04a.178.178 0 0 1-.07-.08l-.37-.86h-1.87l-.38.86c-.02.03-.04.06-.07.08-.03.03-.08.04-.12.04h-.43l1.63-3.58h.57l1.66 3.58Zm-2.7-1.33h1.54l-.65-1.46a2.19 2.19 0 0 1-.12-.33l-.07.18c-.02.06-.04.11-.06.15l-.64 1.46ZM31.92 37.27c.04.02.06.04.09.07l2.38 2.7v-2.78h.49v3.58h-.27c-.04 0-.08-.01-.12-.02-.03-.02-.06-.04-.08-.07l-2.39-2.7c.01.04.01.09 0 .13V40.84h-.48v-3.58h.29c.03 0 .06 0 .09.01ZM38.9 39.41v1.43h-.55v-1.43l-1.51-2.15h.49c.05 0 .09.01.12.03.03.02.05.05.07.08l.95 1.39c.04.06.07.11.1.17l.06.15.07-.16c.03-.05.06-.11.1-.16l.93-1.4c.02-.03.04-.05.07-.08.03-.02.07-.03.11-.03h.5l-1.51 2.16ZM16.73 31.25c.23.03.47.05.72.07 3.67-1.43 6.79-3.77 8.94-6.73 2.16-2.96 3.27-6.4 3.18-9.9l-4.05-3.53c.82 3.73.44 7.58-1.12 11.13-1.55 3.55-4.21 6.65-7.67 8.96Z"/><path fill="#AFB1B8" d="m15.28 31.09.11.02c3.7-2.31 6.53-5.52 8.1-9.23 1.58-3.71 1.84-7.75.75-11.59l-5.77-5.02c2.33 4.13 3.27 8.74 2.71 13.31s-2.61 8.91-5.9 12.51ZM34.86 18.82c-.98 3.85-3.36 7.32-6.79 9.89-1 .76-2.08 1.43-3.23 2.02 2.79-.72 5.36-1.98 7.51-3.69 2.14-1.71 3.8-3.83 4.85-6.19l-2.34-2.03Z"/><path fill="#AFB1B8" d="m33.94 18.26-3.33-2.9c-.06 3.3-1.14 6.53-3.13 9.35-1.99 2.81-4.8 5.12-8.16 6.67h.02c.74 0 1.49-.04 2.23-.12 3.14-1.11 5.91-2.88 8.07-5.15 2.16-2.27 3.64-4.97 4.3-7.85ZM15.76 3.16 11.78-.31C8.23.89 5.17 2.99 3.01 5.72.85 8.45-.31 11.68-.33 14.99c.02 3.66 1.44 7.21 4.03 10.09 2.6 2.89 6.23 4.93 10.32 5.82 3.65-3.86 5.78-8.64 6.1-13.63.31-4.98-1.22-9.93-4.36-14.11ZM43.14 17.72c-.02-4.34-2.01-8.5-5.55-11.57-3.53-3.07-8.32-4.8-13.32-4.82-2.31 0-4.6.37-6.75 1.1l24.36 21.16c.83-1.87 1.26-3.86 1.26-5.87Z"/></svg>