<svg xmlns="http://www.w3.org/2000/svg" width="20" height="20" fill="none"><defs><clipPath id="a"><path fill="#fff" fill-opacity="0" d="M0 0h20v20H0z"/></clipPath></defs><path d="M0 0h20v20H0z"/><g fill="#AFB1B8" clip-path="url(#a)"><path d="M19.98 5.88c-.05-1.07-.22-1.8-.47-2.43-.25-.67-.64-1.27-1.16-1.78-.5-.5-1.1-.9-1.77-1.15-.63-.24-1.36-.42-2.42-.46C13.09.01 12.75 0 10.03 0 7.32 0 6.98.01 5.91.05 4.85.1 4.12.27 3.48.52c-.67.25-1.27.64-1.77 1.15-.51.51-.9 1.11-1.15 1.77-.25.64-.42 1.37-.47 2.43C.04 6.94.03 7.28.03 10c0 2.71.01 3.05.06 4.12.05 1.06.22 1.79.46 2.43.26.67.65 1.27 1.16 1.77.5.51 1.11.9 1.77 1.15.64.25 1.36.42 2.43.47 1.06.04 1.4.05 4.12.05 2.71 0 3.05-.01 4.12-.05 1.06-.05 1.79-.22 2.43-.47a5.12 5.12 0 0 0 2.92-2.92c.25-.64.42-1.37.47-2.43.04-1.07.06-1.41.06-4.12 0-2.72-.01-3.06-.05-4.12Zm-1.81 8.16c-.04.98-.2 1.5-.34 1.86-.34.87-1.03 1.56-1.9 1.9-.35.13-.88.3-1.85.34-1.06.05-1.38.06-4.04.06-2.67 0-2.99-.01-4.04-.06-.98-.04-1.51-.21-1.86-.34-.43-.16-.83-.42-1.15-.75a3.2 3.2 0 0 1-.74-1.15c-.14-.35-.31-.88-.35-1.86-.05-1.05-.06-1.37-.06-4.04 0-2.66.01-2.98.06-4.04.04-.97.21-1.5.35-1.85.16-.43.41-.83.75-1.15.32-.33.71-.59 1.14-.75.36-.13.89-.3 1.86-.34 1.05-.05 1.37-.06 4.04-.06s2.99.01 4.04.06c.98.04 1.5.21 1.86.34.43.16.82.42 1.14.75.34.32.59.72.75 1.15.14.35.3.88.34 1.85.05 1.06.06 1.38.06 4.04 0 2.67-.01 2.99-.06 4.04Z"/><path d="M10.03 4.86c-2.83 0-5.14 2.3-5.14 5.14 0 2.83 2.31 5.13 5.14 5.13 2.84 0 5.14-2.3 5.14-5.13 0-2.84-2.3-5.14-5.14-5.14Zm0 8.47c-1.84 0-3.33-1.49-3.33-3.33s1.49-3.34 3.33-3.34 3.33 1.5 3.33 3.34c0 1.84-1.49 3.33-3.33 3.33Zm6.54-8.67c0 .66-.53 1.2-1.2 1.2-.66 0-1.2-.54-1.2-1.2 0-.67.54-1.2 1.2-1.2.67 0 1.2.53 1.2 1.2Z"/></g></svg>