<svg xmlns="http://www.w3.org/2000/svg" width="20" height="20" fill="none"><defs><clipPath id="a"><path fill="#fff" fill-opacity="0" d="M0 0h20v20H0z"/></clipPath></defs><path fill="none" d="M0 0h20v20H0z"/><g fill="#AFB1B8" clip-path="url(#a)"><path d="M19.99 20v-.01H20v-7.33c0-3.59-.78-6.35-4.97-6.35-2.02 0-3.37 1.1-3.92 2.15h-.06V6.64H7.07v13.35h4.14v-6.61c0-1.74.33-3.42 2.49-3.42 2.12 0 2.15 1.99 2.15 3.53V20h4.14ZM.33 6.64h4.14v13.35H.33V6.64ZM2.4 0C1.07 0 0 1.07 0 2.4c0 1.32 1.07 2.42 2.4 2.42 1.32 0 2.4-1.1 2.4-2.42A2.4 2.4 0 0 0 2.4 0Z"/></g></svg>