<svg aria-hidden="true" style="position: absolute; width: 0; height: 0; overflow: hidden;" version="1.1" xmlns="http://www.w3.org/2000/svg" xmlns:xlink="http://www.w3.org/1999/xlink">
<defs>
<symbol id="icon-phoneHeader" viewBox="0 0 20 32">
<path fill="#757575" style="fill: var(--color1, #757575)" d="M17 0h-14c-1.66 0-3 1.34-3 3v26c0 1.64 1.34 3 3 3h14c1.64 0 3-1.36 3-3v-26c0-1.66-1.36-3-3-3zM3 2h14c0.54 0 1 0.44 1 1v21h-16v-21c0-0.56 0.44-1 1-1zM17 30h-14c-0.56 0-1-0.46-1-1v-3h16v3c0 0.54-0.46 1-1 1z"></path>
<path fill="#757575" style="fill: var(--color1, #757575)" d="M4.7 27.46c0.38 0.38 0.38 0.96 0 1.32-0.4 0.38-1.020 0.38-1.42 0-0.176-0.166-0.285-0.4-0.285-0.66s0.11-0.494 0.285-0.66l0-0c0.4-0.36 1.020-0.36 1.42 0z"></path>
</symbol>
<symbol id="icon-ya" viewBox="0 0 28 32">
<path fill="#afb1b8" style="fill: var(--color2, #afb1b8)" d="M4.085 0l4.771 4.517-8.856-0.005v21.915h23.149v-8.379l4.766 4.512v-22.559h-23.83zM22.939 4.71v12.807l-13.528-12.807h13.528zM18.739 23.221h-15.076v-14.739h1.066v13.741h14.010v0.998zM10.805 30.605c-0.061 0.093-0.091 0.196-0.091 0.307 0 0.204 0.072 0.37 0.214 0.497 0.144 0.126 0.336 0.189 0.575 0.189q0.269 0 0.482-0.109 0.071-0.037 0.136-0.085l0.136 0.161h0.469l-0.356-0.421q0.209-0.286 0.209-0.733h-0.351c0 0.163-0.034 0.311-0.101 0.444l-0.467-0.552 0.165-0.12c0.116-0.084 0.2-0.169 0.251-0.253 0.051-0.085 0.076-0.178 0.076-0.279q0-0.115-0.042-0.211t-0.127-0.173c-0.112-0.104-0.256-0.156-0.432-0.156-0.195 0-0.35 0.055-0.465 0.166-0.115 0.11-0.173 0.259-0.173 0.449 0 0.078 0.018 0.158 0.055 0.241 0.038 0.083 0.104 0.184 0.198 0.302-0.18 0.129-0.3 0.24-0.361 0.334zM15.403 31.383c0.166-0.145 0.262-0.347 0.286-0.605h-0.419c-0.022 0.173-0.075 0.296-0.158 0.371s-0.207 0.111-0.372 0.111c-0.181 0-0.318-0.069-0.412-0.206q-0.14-0.206-0.14-0.598v-0.214c0.002-0.258 0.052-0.454 0.15-0.587 0.099-0.134 0.239-0.201 0.422-0.201 0.157 0 0.277 0.039 0.357 0.116 0.082 0.076 0.133 0.202 0.153 0.376h0.419c-0.027-0.265-0.121-0.47-0.284-0.615s-0.378-0.218-0.645-0.218c-0.198 0-0.373 0.047-0.525 0.141-0.151 0.094-0.267 0.228-0.347 0.402s-0.121 0.375-0.121 0.603v0.226c0.003 0.223 0.045 0.418 0.125 0.587s0.193 0.299 0.339 0.391c0.147 0.091 0.317 0.136 0.51 0.136 0.276 0 0.497-0.072 0.663-0.216zM17.875 31.044c0.082-0.18 0.123-0.388 0.123-0.625v-0.135c-0.001-0.236-0.043-0.443-0.126-0.62q-0.096-0.206-0.254-0.337-0.047-0.039-0.1-0.071c-0.152-0.095-0.326-0.143-0.524-0.143s-0.372 0.048-0.525 0.145q-0.041 0.026-0.079 0.055-0.172 0.136-0.275 0.358c-0.083 0.181-0.125 0.389-0.125 0.625v0.136c0.001 0.232 0.043 0.436 0.126 0.613 0.084 0.177 0.203 0.314 0.356 0.411 0.154 0.095 0.329 0.143 0.525 0.143 0.198 0 0.373-0.048 0.525-0.143 0.153-0.096 0.27-0.234 0.352-0.412zM7.223 29.146l-0.557 1.147-0.557-1.147h-0.467l0.813 1.529v0.891h0.422v-0.891l0.811-1.529h-0.465zM7.923 31.566l0.196-0.563h0.938l0.198 0.563h0.439l-0.916-2.42h-0.377l-0.914 2.42h0.437zM11.463 30.069c-0.114-0.141-0.171-0.258-0.171-0.351 0-0.081 0.023-0.148 0.070-0.201s0.109-0.080 0.188-0.080c0.073 0 0.133 0.023 0.181 0.068 0.048 0.044 0.072 0.098 0.072 0.161 0 0.095-0.034 0.173-0.103 0.234l-0.052 0.042-0.184 0.126zM17.424 29.676c0.102 0.143 0.153 0.349 0.153 0.617v0.126c0 0.273-0.050 0.48-0.151 0.622-0.1 0.142-0.243 0.213-0.429 0.213-0.184 0-0.328-0.073-0.432-0.218-0.103-0.145-0.155-0.351-0.155-0.617v-0.14c0.002-0.26 0.054-0.461 0.156-0.603 0.103-0.143 0.245-0.214 0.427-0.214 0.186 0 0.33 0.072 0.43 0.214zM8.588 29.66l0.351 1.004h-0.701l0.351-1.004zM11.897 31.141c-0.119 0.091-0.246 0.136-0.382 0.136q-0.147 0-0.246-0.069-0.023-0.016-0.043-0.036c-0.072-0.070-0.108-0.161-0.108-0.273 0-0.13 0.067-0.245 0.2-0.346l0.052-0.037 0.529 0.623z"></path>
</symbol>
<symbol id="icon-tagLine" viewBox="0 0 68 32">
<path fill="#afb1b8" style="fill: var(--color2, #afb1b8)" d="M34.487 14.836c-0.32-0.429-0.48-0.931-0.436-1.447v-2.095c0-0.64 0.145-1.127 0.436-1.462s0.793-0.502 1.498-0.502c0.669 0 1.142 0.145 1.425 0.429 0.305 0.364 0.451 0.807 0.415 1.251v0.495h-1.193v-0.502c0.007-0.16-0.007-0.327-0.036-0.487-0.015-0.109-0.073-0.211-0.167-0.291-0.124-0.080-0.276-0.124-0.429-0.109-0.167-0.015-0.327 0.029-0.458 0.116-0.102 0.087-0.175 0.196-0.196 0.32-0.036 0.175-0.051 0.342-0.051 0.516v2.545c-0.015 0.247 0.036 0.495 0.153 0.72 0.065 0.073 0.145 0.131 0.24 0.167s0.204 0.051 0.313 0.044c0.153 0.007 0.298-0.029 0.422-0.116 0.095-0.080 0.16-0.189 0.175-0.313 0.029-0.167 0.044-0.335 0.036-0.509v-0.516h1.193v0.473c0.036 0.465-0.109 0.931-0.407 1.316-0.276 0.313-0.742 0.473-1.433 0.473-0.684 0-1.207-0.167-1.498-0.516z"></path>
<path fill="#afb1b8" style="fill: var(--color2, #afb1b8)" d="M39.455 14.858c-0.298-0.327-0.451-0.8-0.451-1.433v-2.204c0-0.618 0.153-1.091 0.451-1.411 0.305-0.32 0.807-0.48 1.513-0.48s1.207 0.16 1.505 0.48c0.298 0.32 0.458 0.793 0.458 1.411v2.204c0 0.625-0.16 1.105-0.465 1.433s-0.8 0.495-1.498 0.495c-0.691 0-1.207-0.167-1.513-0.495zM41.527 14.335c0.102-0.211 0.153-0.429 0.138-0.655v-2.705c0.015-0.218-0.029-0.436-0.138-0.64-0.058-0.073-0.145-0.138-0.247-0.175-0.095-0.036-0.204-0.051-0.313-0.036-0.109-0.015-0.218 0-0.313 0.036-0.102 0.044-0.189 0.102-0.247 0.175-0.109 0.204-0.16 0.422-0.145 0.64v2.72c-0.015 0.218 0.036 0.444 0.145 0.647 0.073 0.073 0.153 0.124 0.255 0.167 0.095 0.036 0.196 0.051 0.305 0.051 0.102 0 0.211-0.015 0.305-0.051 0.095-0.044 0.182-0.095 0.255-0.167v-0.007z"></path>
<path fill="#afb1b8" style="fill: var(--color2, #afb1b8)" d="M44.364 9.396h1.287l0.96 4.065 0.989-4.065h1.251l0.124 5.876h-0.924l-0.095-4.087-0.953 4.087h-0.742l-0.989-4.102-0.095 4.102h-0.931l0.116-5.876z"></path>
<path fill="#afb1b8" style="fill: var(--color2, #afb1b8)" d="M50.422 9.396h2c1.149 0 1.731 0.553 1.731 1.665 0 1.069-0.611 1.6-1.825 1.6h-0.684v2.611h-1.229l0.007-5.876zM52.131 11.905c0.116 0.015 0.24 0.007 0.364-0.029 0.116-0.029 0.225-0.087 0.313-0.153 0.145-0.204 0.204-0.436 0.175-0.669 0.007-0.175-0.007-0.356-0.058-0.531-0.015-0.058-0.044-0.116-0.087-0.16-0.044-0.051-0.095-0.087-0.16-0.116-0.167-0.073-0.356-0.109-0.545-0.095h-0.48v1.753h0.48z"></path>
<path fill="#afb1b8" style="fill: var(--color2, #afb1b8)" d="M55.927 9.396h1.331l1.36 5.876h-1.149l-0.269-1.36h-1.185l-0.276 1.36h-1.171l1.36-5.876zM57.062 13.236l-0.458-2.465-0.465 2.465h0.924z"></path>
<path fill="#afb1b8" style="fill: var(--color2, #afb1b8)" d="M59.716 9.396h0.865l1.658 3.353v-3.353h1.025v5.876h-0.822l-1.665-3.498v3.498h-1.062v-5.876z"></path>
<path fill="#afb1b8" style="fill: var(--color2, #afb1b8)" d="M65.665 13.033l-1.375-3.629h1.156l0.844 2.327 0.785-2.327h1.135l-1.36 3.629v2.24h-1.185v-2.24z"></path>
<path fill="#afb1b8" style="fill: var(--color2, #afb1b8)" d="M36.393 17.84v0.305h-1.004v2.385h-0.422v-2.385h-1.018v-0.305h2.444z"></path>
<path fill="#afb1b8" style="fill: var(--color2, #afb1b8)" d="M39.556 20.531h-0.327c-0.036 0-0.065-0.007-0.095-0.022-0.022-0.022-0.044-0.044-0.051-0.065l-0.291-0.64h-1.396l-0.298 0.64c-0.007 0.029-0.022 0.051-0.044 0.073s-0.058 0.029-0.087 0.029h-0.327l1.236-2.698h0.429l1.251 2.684zM37.505 19.535h1.171l-0.495-1.098c-0.036-0.087-0.065-0.167-0.095-0.255-0.015 0.051-0.029 0.102-0.044 0.145l-0.044 0.109-0.495 1.098z"></path>
<path fill="#afb1b8" style="fill: var(--color2, #afb1b8)" d="M41.687 20.269c0.073 0 0.153 0 0.233 0 0.065-0.007 0.131-0.022 0.196-0.036 0.058-0.007 0.116-0.029 0.175-0.044 0.058-0.022 0.109-0.044 0.167-0.073v-0.604h-0.495c-0.015 0-0.022 0-0.036 0-0.015-0.007-0.022-0.015-0.029-0.022s-0.015-0.015-0.022-0.022c0-0.007-0.007-0.015-0.007-0.022v-0.211h0.96v1.033c-0.080 0.051-0.16 0.095-0.247 0.131s-0.175 0.065-0.269 0.087c-0.102 0.029-0.211 0.044-0.313 0.058-0.116 0.007-0.24 0.015-0.356 0.015-0.218 0-0.429-0.029-0.625-0.102-0.189-0.058-0.356-0.16-0.495-0.276-0.138-0.124-0.247-0.269-0.32-0.429-0.080-0.182-0.116-0.371-0.116-0.56s0.036-0.378 0.116-0.56c0.073-0.16 0.175-0.305 0.32-0.429 0.138-0.124 0.305-0.218 0.495-0.276 0.211-0.073 0.436-0.102 0.662-0.102 0.109 0 0.225 0.007 0.342 0.022 0.102 0.015 0.196 0.036 0.291 0.073 0.087 0.022 0.175 0.058 0.247 0.102 0.080 0.044 0.153 0.087 0.218 0.145l-0.124 0.16c-0.007 0.015-0.022 0.029-0.036 0.036-0.015 0.015-0.036 0.015-0.058 0.015-0.029 0-0.051-0.007-0.073-0.015-0.036-0.022-0.080-0.044-0.124-0.065-0.051-0.029-0.109-0.058-0.167-0.073-0.073-0.029-0.145-0.051-0.225-0.058-0.102-0.022-0.211-0.029-0.313-0.029-0.167 0-0.327 0.029-0.48 0.080-0.138 0.044-0.262 0.116-0.364 0.211s-0.175 0.211-0.225 0.335c-0.109 0.291-0.109 0.604 0 0.895 0.051 0.131 0.138 0.247 0.247 0.342 0.102 0.095 0.225 0.167 0.356 0.211 0.16 0.051 0.327 0.065 0.495 0.058z"></path>
<path fill="#afb1b8" style="fill: var(--color2, #afb1b8)" d="M45.622 20.225h1.353v0.305h-1.767v-2.691h0.422l-0.007 2.385z"></path>
<path fill="#afb1b8" style="fill: var(--color2, #afb1b8)" d="M48.378 20.531h-0.429v-2.691h0.429v2.691z"></path>
<path fill="#afb1b8" style="fill: var(--color2, #afb1b8)" d="M49.949 17.847c0.022 0.015 0.044 0.029 0.058 0.051l1.811 2.029c-0.007-0.029-0.007-0.058 0-0.095 0-0.029 0-0.058 0-0.087v-1.92h0.364v2.705h-0.211c-0.029 0-0.058 0-0.087-0.015s-0.051-0.029-0.073-0.051l-1.804-2.029c0 0.029 0 0.065 0 0.095s0 0.058 0 0.080v1.92h-0.349v-2.691h0.218c0.022 0 0.051 0 0.073 0.007z"></path>
<path fill="#afb1b8" style="fill: var(--color2, #afb1b8)" d="M55.295 17.84v0.291h-1.498v0.895h1.215v0.284h-1.215v0.916h1.498v0.298h-1.935v-2.684h1.935z"></path>
<path fill="#afb1b8" style="fill: var(--color2, #afb1b8)" d="M11.025 1.2l18.756 4.596v16.116l-18.756-4.596v-16.116zM9.818-0.175v18.276l21.164 5.185v-18.269l-21.164-5.193z"></path>
<path fill="#afb1b8" style="fill: var(--color2, #afb1b8)" d="M21.164 31.775l-21.164-5.193v-18.276l21.164 5.193v18.276z"></path>
<path fill="#afb1b8" style="fill: var(--color2, #afb1b8)" d="M10.167 0.996l18.516 4.538-7.869 6.8-18.524-4.545 7.876-6.793zM9.818-0.175l-9.818 8.48 21.164 5.193 9.818-8.48-21.164-5.193z"></path>
<path fill="#afb1b8" style="fill: var(--color2, #afb1b8)" d="M22.356 30.742l8.625-7.447-8.625-2.124v9.571z"></path>
</symbol>
<symbol id="icon-brand" viewBox="0 0 44 32">
<path fill="#afb1b8" style="fill: var(--color2, #afb1b8)" d="M3.304 26.247c0.174 0.195 0.264 0.431 0.257 0.682 0.007 0.16-0.021 0.32-0.090 0.466-0.070 0.153-0.174 0.285-0.306 0.39-0.327 0.23-0.737 0.341-1.148 0.313h-2.017v-4.306h1.976c0.39-0.021 0.779 0.077 1.092 0.285 0.132 0.097 0.23 0.223 0.299 0.362s0.097 0.292 0.090 0.445c0.007 0.237-0.070 0.473-0.23 0.661-0.153 0.167-0.369 0.285-0.605 0.334 0.271 0.049 0.508 0.174 0.682 0.369zM0.939 25.6h0.842c0.195 0.007 0.383-0.042 0.536-0.146 0.070-0.056 0.118-0.118 0.146-0.188 0.035-0.077 0.049-0.153 0.042-0.237 0-0.077-0.007-0.153-0.042-0.223-0.028-0.077-0.077-0.139-0.139-0.195-0.16-0.111-0.355-0.16-0.557-0.146h-0.828v1.134zM2.4 27.249c0.070-0.056 0.125-0.118 0.16-0.195s0.049-0.16 0.042-0.243c0.007-0.083-0.007-0.167-0.049-0.243-0.035-0.077-0.083-0.146-0.153-0.195-0.167-0.118-0.369-0.174-0.577-0.16h-0.883v1.183h0.897c0.202 0.014 0.403-0.042 0.563-0.146z"></path>
<path fill="#afb1b8" style="fill: var(--color2, #afb1b8)" d="M7.353 28.097l-1.106-1.683h-0.41v1.683h-0.946v-4.306h1.788c0.452-0.028 0.904 0.104 1.252 0.369 0.25 0.23 0.403 0.543 0.424 0.87 0.028 0.327-0.077 0.647-0.292 0.911-0.223 0.23-0.522 0.383-0.856 0.438l1.176 1.718h-1.030zM5.837 25.83h0.772c0.543 0 0.807-0.216 0.807-0.654 0.007-0.090-0.007-0.174-0.042-0.257s-0.083-0.16-0.153-0.23c-0.174-0.125-0.39-0.188-0.612-0.174h-0.779l0.007 1.315z"></path>
<path fill="#afb1b8" style="fill: var(--color2, #afb1b8)" d="M12.529 27.235h-1.892l-0.334 0.863h-0.988l1.732-4.257h1.071l1.725 4.257h-0.995l-0.32-0.863zM12.271 26.581l-0.689-1.823-0.689 1.823h1.377z"></path>
<path fill="#afb1b8" style="fill: var(--color2, #afb1b8)" d="M19.005 28.097h-0.939l-2.108-2.929v2.929h-0.939v-4.306h0.939l2.108 2.943v-2.943h0.939v4.306z"></path>
<path fill="#afb1b8" style="fill: var(--color2, #afb1b8)" d="M24.369 27.068c-0.195 0.327-0.494 0.591-0.849 0.758-0.41 0.188-0.87 0.285-1.322 0.271h-1.677v-4.306h1.677c0.452-0.014 0.911 0.083 1.322 0.264 0.355 0.167 0.654 0.431 0.849 0.751 0.195 0.348 0.292 0.737 0.292 1.134 0 0.39-0.097 0.779-0.292 1.127zM23.29 26.963c0.271-0.285 0.417-0.647 0.417-1.030 0-0.376-0.146-0.737-0.417-1.023-0.32-0.264-0.744-0.397-1.176-0.369h-0.654v2.79h0.654c0.431 0.021 0.856-0.111 1.176-0.369z"></path>
<path fill="#afb1b8" style="fill: var(--color2, #afb1b8)" d="M13.113-0.167c0 0 12.132 4.195 11.875 10.261v10.268c0 0-12.125-4.195-11.868-10.268l-0.007-10.261z"></path>
<path fill="#afb1b8" style="fill: var(--color2, #afb1b8)" d="M35.798 17.955c2.289-1.44 4.939-2.337 7.701-2.602v-3.207c-3.186 1.12-5.885 3.158-7.701 5.809z"></path>
<path fill="#afb1b8" style="fill: var(--color2, #afb1b8)" d="M34.421 18.922c1.871-3.457 5.127-6.122 9.085-7.45v-9.259c0 0-17.28 5.976-16.911 14.616v14.616c0 0 0.765-0.271 1.976-0.772 0-0.466 0-0.939 0.056-1.412 0.362-4.014 2.442-7.729 5.795-10.337z"></path>
<path fill="#afb1b8" style="fill: var(--color2, #afb1b8)" d="M32.772 24.355c0.097-1.016 0.299-2.017 0.605-2.991-2.087 2.247-3.346 5.043-3.61 7.986-0.028 0.271-0.042 0.55-0.049 0.842 0.988-0.431 2.129-0.974 3.325-1.607-0.306-1.391-0.397-2.817-0.271-4.23z"></path>
<path fill="#afb1b8" style="fill: var(--color2, #afb1b8)" d="M33.461 24.403c-0.111 1.28-0.042 2.574 0.216 3.833 4.717-2.588 10.024-6.581 9.823-11.409v-0.424c-3.374 0.348-6.532 1.697-8.981 3.847-0.577 1.329-0.932 2.727-1.057 4.153z"></path>
</symbol>
<symbol id="icon-compani" viewBox="0 0 25 32">
<path fill="#afb1b8" style="fill: var(--color2, #afb1b8)" d="M10.447 1.806h0.084c0.156 0 0.324 0.016 0.49 0.030 0.734 0.052 1.463 0.162 2.179 0.329v-1.762c-0.738-0.185-1.491-0.305-2.25-0.358-0.288-0.022-0.595-0.036-0.909-0.044h-0.263c-1.523 0.006-3.039 0.201-4.515 0.582-1.68 0.419-3.293 1.075-4.79 1.948v17.475c1.442-0.783 2.976-1.381 4.566-1.779 1.256-0.32 2.539-0.517 3.833-0.588h0.051c0.216-0.011 0.433-0.017 0.655-0.019v-1.79c-1.681 0.022-3.353 0.244-4.982 0.662-0.602 0.157-1.185 0.326-1.731 0.513l-0.623 0.211v-13.625l0.266-0.128c2.032-0.963 4.229-1.524 6.471-1.651 0.019-0.001 0.037-0.001 0.056 0 0.248-0.013 0.497-0.019 0.741-0.019h0.28c0.129 0.003 0.258 0.006 0.388 0.014zM13.633 3.607c0.391 0.030 0.795 0.044 1.205 0.044 1.601-0.006 3.195-0.21 4.747-0.609 1.589-0.4 3.123-0.998 4.564-1.781v17.163c-1.498 0.873-3.111 1.529-4.792 1.948-1.475 0.379-2.992 0.574-4.515 0.581-1.154 0.009-2.304-0.126-3.425-0.404v-17.275c0.265 0.061 0.537 0.117 0.814 0.164 0.455 0.077 0.934 0.133 1.401 0.167zM22.367 3.74l-0.623 0.21c-0.573 0.192-1.15 0.365-1.731 0.518-1.691 0.434-3.428 0.657-5.173 0.663-0.406 0-0.78-0.011-1.141-0.034l-0.497-0.033v14.017l0.427 0.038c0.395 0.034 0.803 0.052 1.214 0.052 1.375-0.006 2.743-0.183 4.074-0.527 1.096-0.275 2.162-0.658 3.183-1.144l0.266-0.128v-13.63z"></path>
<path fill="#afb1b8" style="fill: var(--color2, #afb1b8)" d="M1.68 25.975c-0.086-0.092-0.197-0.166-0.314-0.215-0.123-0.049-0.246-0.074-0.375-0.068-0.142 0-0.277 0.025-0.4 0.074-0.117 0.049-0.228 0.117-0.314 0.209-0.086 0.086-0.154 0.197-0.203 0.314-0.049 0.123-0.068 0.252-0.068 0.382v2.338c-0.006 0.166 0.025 0.326 0.092 0.48 0.055 0.117 0.135 0.222 0.234 0.308 0.092 0.080 0.203 0.135 0.32 0.166 0.111 0.037 0.228 0.049 0.345 0.049 0.135 0.006 0.258-0.025 0.382-0.080 0.117-0.049 0.222-0.123 0.308-0.215s0.16-0.197 0.203-0.314c0.049-0.117 0.080-0.246 0.080-0.369v-0.265h-0.615v0.209c0.006 0.074-0.006 0.142-0.031 0.209-0.025 0.049-0.055 0.092-0.092 0.129-0.037 0.031-0.080 0.055-0.129 0.068-0.037 0.012-0.080 0.025-0.123 0.025-0.055 0.006-0.111-0.006-0.16-0.025-0.055-0.025-0.098-0.055-0.129-0.105-0.055-0.092-0.086-0.203-0.080-0.314v-2.172c-0.006-0.123 0.018-0.24 0.074-0.351 0.031-0.049 0.074-0.086 0.129-0.111s0.111-0.037 0.172-0.031c0.049 0 0.105 0.012 0.148 0.031 0.049 0.025 0.092 0.062 0.123 0.105 0.068 0.086 0.105 0.197 0.098 0.308v0.203h0.603v-0.234c0.006-0.142-0.018-0.283-0.074-0.412-0.043-0.123-0.111-0.234-0.203-0.326z"></path>
<path fill="#afb1b8" style="fill: var(--color2, #afb1b8)" d="M5.305 25.945c-0.191-0.16-0.437-0.252-0.689-0.252-0.129 0-0.252 0.018-0.369 0.062s-0.228 0.111-0.32 0.191c-0.098 0.092-0.185 0.203-0.234 0.332-0.062 0.142-0.092 0.295-0.092 0.449v2.24c-0.006 0.16 0.025 0.314 0.092 0.455 0.055 0.123 0.135 0.228 0.234 0.314 0.092 0.086 0.203 0.154 0.32 0.197s0.24 0.068 0.369 0.068c0.123 0 0.246-0.025 0.363-0.068s0.234-0.111 0.326-0.197c0.098-0.086 0.178-0.191 0.234-0.314 0.062-0.142 0.092-0.295 0.086-0.455v-2.24c0.006-0.154-0.025-0.308-0.086-0.449-0.055-0.123-0.135-0.24-0.234-0.332zM5.022 28.966c0.006 0.062 0 0.117-0.025 0.178-0.018 0.055-0.055 0.105-0.098 0.148-0.080 0.068-0.178 0.105-0.283 0.105s-0.209-0.037-0.289-0.105c-0.043-0.043-0.074-0.092-0.098-0.148-0.018-0.062-0.031-0.117-0.025-0.178v-2.24c-0.006-0.062 0.006-0.117 0.025-0.178 0.025-0.055 0.055-0.105 0.098-0.148 0.080-0.068 0.185-0.105 0.289-0.105s0.203 0.037 0.283 0.105c0.043 0.043 0.080 0.092 0.098 0.148 0.025 0.062 0.031 0.117 0.025 0.178v2.24z"></path>
<path fill="#afb1b8" style="fill: var(--color2, #afb1b8)" d="M10.068 29.963v-4.234h-0.585l-0.769 2.24h-0.012l-0.775-2.24h-0.585v4.234h0.609v-2.578h0.006l0.597 1.828h0.302l0.597-1.828h0.012v2.578h0.603z"></path>
<path fill="#afb1b8" style="fill: var(--color2, #afb1b8)" d="M13.508 26.025c-0.092-0.105-0.209-0.185-0.338-0.234-0.142-0.043-0.289-0.068-0.443-0.062h-0.898v4.234h0.603v-1.655h0.314c0.185 0.012 0.375-0.031 0.542-0.111 0.142-0.080 0.252-0.191 0.332-0.326 0.074-0.111 0.117-0.24 0.142-0.369 0.025-0.16 0.031-0.32 0.031-0.48 0.006-0.203-0.012-0.412-0.062-0.609-0.037-0.148-0.117-0.277-0.222-0.388zM13.2 27.317c-0.006 0.074-0.025 0.154-0.055 0.222-0.037 0.062-0.092 0.117-0.16 0.148-0.086 0.037-0.185 0.055-0.283 0.055h-0.277v-1.446h0.314c0.092 0 0.185 0.018 0.271 0.055 0.062 0.037 0.111 0.092 0.142 0.154 0.031 0.080 0.049 0.16 0.055 0.24 0 0.086 0 0.185 0 0.283s0.006 0.197 0 0.289h-0.006z"></path>
<path fill="#afb1b8" style="fill: var(--color2, #afb1b8)" d="M16.369 25.729h-0.492l-0.935 4.234h0.603l0.178-0.911h0.825l0.178 0.911h0.603l-0.96-4.234zM15.815 28.48l0.295-1.538h0.012l0.295 1.538h-0.603z"></path>
<path fill="#afb1b8" style="fill: var(--color2, #afb1b8)" d="M20.271 28.283h-0.006l-0.917-2.554h-0.578v4.234h0.603v-2.548h0.012l0.923 2.548h0.572v-4.234h-0.609v2.554z"></path>
<path fill="#afb1b8" style="fill: var(--color2, #afb1b8)" d="M23.963 25.729l-0.486 1.68h-0.012l-0.486-1.68h-0.64l0.831 2.443v1.791h0.603v-1.791l0.831-2.443h-0.64z"></path>
<path fill="#afb1b8" style="fill: var(--color2, #afb1b8)" d="M0 31.163h0.289v0.818h0.197v-0.818h0.289v-0.166h-0.775v0.166z"></path>
<path fill="#afb1b8" style="fill: var(--color2, #afb1b8)" d="M2.443 30.997l-0.382 0.985h0.209l0.080-0.228h0.394l0.086 0.228h0.215l-0.394-0.985h-0.209zM2.412 31.588l0.135-0.363 0.135 0.363h-0.271z"></path>
<path fill="#afb1b8" style="fill: var(--color2, #afb1b8)" d="M4.862 31.618h0.228v0.123c-0.068 0.055-0.148 0.086-0.234 0.086-0.037 0-0.080-0.006-0.117-0.025-0.031-0.012-0.068-0.037-0.092-0.068-0.049-0.080-0.074-0.166-0.074-0.258 0-0.222 0.098-0.332 0.289-0.332 0.049 0 0.098 0.012 0.135 0.037 0.043 0.031 0.074 0.074 0.086 0.123l0.191-0.037c-0.037-0.197-0.178-0.289-0.412-0.289-0.129-0.006-0.252 0.043-0.345 0.123-0.049 0.049-0.092 0.111-0.117 0.178-0.025 0.062-0.031 0.135-0.025 0.203-0.006 0.135 0.037 0.265 0.123 0.369 0.049 0.049 0.105 0.086 0.172 0.111 0.062 0.025 0.135 0.037 0.203 0.031 0.154 0.006 0.302-0.049 0.418-0.154v-0.388h-0.431v0.166z"></path>
<path fill="#afb1b8" style="fill: var(--color2, #afb1b8)" d="M7.335 30.997h-0.203v0.985h0.689v-0.166h-0.486v-0.818z"></path>
<path fill="#afb1b8" style="fill: var(--color2, #afb1b8)" d="M9.225 30.997h0.197v0.985h-0.197v-0.985z"></path>
<path fill="#afb1b8" style="fill: var(--color2, #afb1b8)" d="M11.465 31.655l-0.4-0.658h-0.197v0.985h0.185v-0.646l0.4 0.646h0.197v-0.985h-0.185v0.658z"></path>
<path fill="#afb1b8" style="fill: var(--color2, #afb1b8)" d="M13.311 31.545h0.492v-0.166h-0.492v-0.215h0.529v-0.166h-0.726v0.985h0.745v-0.166h-0.548v-0.271z"></path>
<path fill="#afb1b8" style="fill: var(--color2, #afb1b8)" d="M17.791 31.385h-0.388v-0.388h-0.197v0.985h0.197v-0.431h0.388v0.431h0.197v-0.985h-0.197v0.388z"></path>
<path fill="#afb1b8" style="fill: var(--color2, #afb1b8)" d="M19.649 31.545h0.486v-0.166h-0.486v-0.215h0.529v-0.166h-0.732v0.985h0.751v-0.166h-0.548v-0.271z"></path>
<path fill="#afb1b8" style="fill: var(--color2, #afb1b8)" d="M22.166 31.545c0.172-0.025 0.258-0.117 0.258-0.271 0.006-0.043 0-0.086-0.018-0.123s-0.043-0.074-0.080-0.098c-0.086-0.043-0.191-0.062-0.289-0.055h-0.412v0.985h0.197v-0.412h0.037c0.043-0.006 0.086 0.006 0.123 0.018 0.031 0.018 0.055 0.043 0.068 0.074l0.215 0.314h0.24l-0.123-0.191c-0.049-0.098-0.129-0.178-0.215-0.24zM21.963 31.409h-0.142v-0.246h0.154c0.068-0.006 0.135 0 0.203 0.025 0.012 0.012 0.025 0.025 0.031 0.043s0.012 0.037 0.012 0.055c-0.006 0.025-0.006 0.043-0.018 0.055-0.006 0.018-0.018 0.031-0.037 0.043-0.062 0.025-0.135 0.031-0.203 0.025z"></path>
<path fill="#afb1b8" style="fill: var(--color2, #afb1b8)" d="M24.062 31.545h0.492v-0.166h-0.492v-0.215h0.529v-0.166h-0.726v0.985h0.751v-0.166h-0.554v-0.271z"></path>
</symbol>
<symbol id="icon-fosterPeters" viewBox="0 0 66 32">
<path fill="#2196f3" style="fill: var(--color3, #2196f3)" d="M10.256 9.444v0c1.873 0 3.387 1.35 3.387 3.013v0c0 1.662-1.514 3.013-3.387 3.013v0c-1.873 0-3.387-1.35-3.387-3.013v0c0-1.662 1.514-3.013 3.387-3.013z"></path>
<path fill="#2196f3" style="fill: var(--color3, #2196f3)" d="M35.27 8.476c-0.008-2.31-1.038-4.519-2.88-6.158-1.834-1.631-4.324-2.552-6.931-2.56v0c-2.599 0.008-5.089 0.929-6.931 2.56-1.834 1.639-2.872 3.848-2.88 6.158v12.745c0 0 19.621-1.943 19.621-12.738v-0.008z"></path>
<path fill="#2196f3" style="fill: var(--color3, #2196f3)" d="M0 25.397c0 1.608 0.718 3.153 1.998 4.285 1.28 1.14 3.013 1.779 4.823 1.787 1.811-0.008 3.543-0.648 4.816-1.779 1.28-1.14 2.006-2.677 2.006-4.285v-8.866c0 0-13.643 1.35-13.643 8.859zM6.821 26.989c-0.351 0-0.702-0.094-0.991-0.265-0.297-0.18-0.523-0.421-0.663-0.718-0.133-0.289-0.164-0.609-0.101-0.913 0.070-0.312 0.242-0.593 0.492-0.812 0.25-0.226 0.57-0.375 0.913-0.437 0.351-0.062 0.71-0.031 1.038 0.086 0.32 0.125 0.601 0.328 0.796 0.585 0.195 0.265 0.304 0.57 0.304 0.882 0 0.211-0.047 0.421-0.133 0.617-0.094 0.187-0.226 0.367-0.39 0.515s-0.359 0.265-0.578 0.343c-0.219 0.078-0.453 0.125-0.687 0.125v-0.008z"></path>
<path fill="#2196f3" style="fill: var(--color3, #2196f3)" d="M23.735 26.747q0.18-0.367 0.18-0.859v-0.148q0-0.492-0.18-0.866-0.133-0.281-0.351-0.468-0.070-0.055-0.148-0.109-0.070-0.039-0.14-0.070-0.273-0.125-0.601-0.125t-0.601 0.125q-0.070 0.031-0.14 0.070-0.078 0.055-0.148 0.109-0.219 0.187-0.351 0.468-0.18 0.375-0.18 0.866v0.164q0.008 0.476 0.187 0.851 0.125 0.265 0.336 0.445 0.078 0.070 0.164 0.125 0.070 0.039 0.148 0.078 0.273 0.117 0.593 0.117 0.336 0 0.609-0.133 0.070-0.031 0.133-0.070 0.086-0.055 0.172-0.125 0.195-0.18 0.32-0.445zM26.076 26.388q0.062 0.086 0.062 0.211 0 0.101-0.047 0.18-0.031 0.055-0.094 0.101-0.133 0.101-0.382 0.101-0.382 0-0.546-0.195-0.109-0.133-0.109-0.359h-0.687q0 0.242 0.094 0.437 0.031 0.070 0.070 0.133 0 0 0.008 0.008 0.164 0.234 0.476 0.375t0.695 0.14q0.554 0 0.882-0.242 0.14-0.109 0.219-0.25 0.109-0.187 0.109-0.429 0-0.219-0.086-0.398-0.062-0.14-0.18-0.25-0.273-0.265-0.859-0.437-0.312-0.101-0.476-0.211-0.117-0.078-0.148-0.18-0.016-0.047-0.016-0.094 0-0.086 0.031-0.148 0.039-0.078 0.109-0.133 0.14-0.101 0.39-0.101 0.258 0 0.406 0.125 0.031 0.031 0.062 0.070 0.078 0.117 0.078 0.289h0.687q0-0.211-0.070-0.382-0.039-0.078-0.086-0.156-0.031-0.047-0.070-0.094-0.14-0.172-0.359-0.273-0.281-0.125-0.64-0.125-0.351 0-0.64 0.117-0.281 0.117-0.437 0.328-0.062 0.086-0.094 0.187-0.055 0.14-0.055 0.297t0.047 0.297q0.125 0.312 0.523 0.531 0.203 0.109 0.562 0.226t0.492 0.219q0.047 0.039 0.078 0.086zM52.862 26.388q0.062 0.086 0.062 0.211 0 0.101-0.047 0.18-0.031 0.055-0.094 0.101-0.141 0.101-0.382 0.101-0.382 0-0.546-0.195-0.109-0.133-0.109-0.359h-0.687q0 0.242 0.086 0.437 0.031 0.070 0.078 0.133 0 0 0.008 0.008 0.164 0.234 0.468 0.375 0.32 0.14 0.702 0.14 0.554 0 0.882-0.242 0.141-0.109 0.219-0.25 0.109-0.187 0.109-0.429 0-0.219-0.086-0.398-0.070-0.14-0.179-0.25-0.273-0.265-0.859-0.437-0.312-0.101-0.476-0.211-0.117-0.078-0.156-0.18-0.008-0.047-0.008-0.094 0-0.086 0.031-0.148 0.031-0.078 0.109-0.133 0.133-0.101 0.39-0.101t0.398 0.125q0.039 0.031 0.070 0.070 0.078 0.117 0.078 0.289h0.687q0-0.211-0.078-0.382-0.031-0.078-0.078-0.156-0.031-0.047-0.070-0.094-0.141-0.172-0.359-0.273-0.281-0.125-0.64-0.125-0.351 0-0.64 0.117-0.281 0.117-0.437 0.328-0.062 0.086-0.094 0.187-0.055 0.14-0.055 0.297t0.047 0.297q0.125 0.312 0.515 0.531 0.211 0.109 0.57 0.226 0.351 0.117 0.492 0.219 0.047 0.039 0.078 0.086zM19.301 26.115h1.311v-0.554h-1.311v-0.859h1.475v-0.554h-2.162v3.325h0.687v-1.358zM28.777 24.702h1.022v-0.554h-2.716v0.554h1.007v2.771h0.687v-2.771zM30.876 26.029h1.311v-0.539h-1.311v-0.788h1.538v-0.554h-2.224v3.325h2.232v-0.546h-1.545v-0.898zM33.506 26.256h0.546l0.624 1.218h0.734v-0.031l-0.718-1.358q0.297-0.133 0.445-0.367 0.148-0.226 0.148-0.562t-0.156-0.57q-0.062-0.094-0.164-0.18-0.32-0.258-0.905-0.258h-1.241v3.325h0.687v-1.218zM37.659 27.473v-1.171h0.601q0.593 0 0.929-0.281 0.117-0.101 0.195-0.226 0.141-0.226 0.141-0.546 0-0.258-0.094-0.468-0.023-0.055-0.055-0.109-0.047-0.070-0.109-0.14-0.133-0.148-0.336-0.25-0.281-0.133-0.656-0.133h-1.303v3.325h0.687zM40.679 26.029h1.319v-0.539h-1.319v-0.788h1.545v-0.554h-2.232v3.325h2.232v-0.546h-1.545v-0.898zM44.16 24.702h1.022v-0.554h-2.716v0.554h1.007v2.771h0.687v-2.771zM46.26 26.029h1.319v-0.539h-1.319v-0.788h1.538v-0.554h-2.224v3.325h2.232v-0.546h-1.545v-0.898zM48.89 26.256h0.546l0.624 1.218h0.741v-0.031l-0.726-1.358q0.304-0.133 0.453-0.367 0.148-0.226 0.148-0.562t-0.156-0.57q-0.070-0.094-0.164-0.18-0.32-0.258-0.913-0.258h-1.233v3.325h0.679v-1.218zM23.032 24.937q0.187 0.273 0.187 0.796v0.164q-0.008 0.523-0.187 0.788-0.086 0.125-0.195 0.187-0.148 0.086-0.336 0.086-0.195 0-0.336-0.086-0.125-0.070-0.203-0.195-0.187-0.281-0.187-0.788v-0.164q0-0.523 0.187-0.788 0.078-0.117 0.195-0.187 0.14-0.086 0.336-0.086t0.336 0.086q0.117 0.070 0.203 0.187zM34.060 25.701h-0.554v-0.999h0.554q0.273 0 0.406 0.133 0.023 0.023 0.039 0.047 0.094 0.125 0.094 0.328 0 0.172-0.078 0.289-0.031 0.039-0.062 0.070 0 0-0.008 0.008-0.141 0.125-0.39 0.125zM38.275 25.748h-0.617v-1.046h0.632q0.203 0 0.336 0.101 0.031 0.023 0.062 0.055t0.055 0.070q0.086 0.133 0.086 0.32 0 0.195-0.086 0.312-0.023 0.031-0.055 0.055-0.141 0.133-0.414 0.133zM49.444 25.701h-0.554v-0.999h0.554q0.273 0 0.414 0.133 0.016 0.023 0.031 0.047 0.101 0.125 0.101 0.328 0 0.172-0.086 0.289-0.023 0.039-0.055 0.070-0.008 0-0.008 0.008-0.141 0.125-0.398 0.125z"></path>
</symbol>
<symbol id="icon-group" viewBox="0 0 34 32">
<path fill="#afb1b8" style="fill: var(--color2, #afb1b8)" d="M4.995 31.298c0.016 0 0.023 0 0.039 0.008 0.008 0 0.016 0.008 0.031 0.016l0.164 0.164c-0.133 0.133-0.289 0.234-0.476 0.304-0.211 0.078-0.445 0.117-0.679 0.117-0.219 0-0.437-0.031-0.64-0.109-0.179-0.062-0.343-0.164-0.476-0.289-0.14-0.133-0.242-0.289-0.312-0.453-0.078-0.187-0.109-0.382-0.109-0.578s0.039-0.398 0.117-0.578c0.070-0.172 0.187-0.328 0.328-0.453 0.148-0.133 0.32-0.226 0.515-0.297 0.203-0.070 0.429-0.109 0.656-0.101 0.211-0.008 0.414 0.023 0.609 0.094 0.172 0.062 0.328 0.148 0.46 0.258l-0.148 0.18c-0.008 0.008-0.016 0.016-0.031 0.031-0.016 0.008-0.039 0.008-0.062 0.008-0.016 0-0.039-0.008-0.055-0.016l-0.078-0.047-0.109-0.062c-0.047-0.016-0.094-0.039-0.141-0.055-0.062-0.023-0.133-0.031-0.195-0.047-0.086-0.016-0.172-0.016-0.25-0.016-0.164-0.008-0.328 0.023-0.476 0.078-0.14 0.047-0.265 0.117-0.367 0.219-0.109 0.101-0.187 0.219-0.242 0.343-0.062 0.148-0.094 0.304-0.086 0.46-0.008 0.156 0.023 0.312 0.086 0.468 0.047 0.125 0.133 0.242 0.234 0.343 0.101 0.094 0.219 0.164 0.351 0.211 0.14 0.055 0.289 0.078 0.445 0.078 0.086 0 0.172-0.008 0.258-0.016 0.141-0.016 0.273-0.055 0.39-0.125 0.062-0.031 0.117-0.070 0.172-0.117 0.023-0.016 0.047-0.023 0.078-0.023z"></path>
<path fill="#afb1b8" style="fill: var(--color2, #afb1b8)" d="M9.912 30.478c0 0.195-0.039 0.39-0.117 0.578-0.070 0.164-0.179 0.312-0.32 0.445-0.14 0.125-0.312 0.226-0.499 0.289-0.421 0.14-0.882 0.14-1.296 0-0.187-0.062-0.359-0.164-0.5-0.289-0.141-0.133-0.25-0.289-0.328-0.453-0.148-0.375-0.148-0.78 0-1.155 0.078-0.164 0.187-0.32 0.328-0.453 0.141-0.125 0.312-0.219 0.5-0.281 0.414-0.14 0.874-0.14 1.296 0 0.187 0.070 0.359 0.164 0.499 0.297 0.14 0.125 0.25 0.273 0.32 0.445 0.078 0.18 0.117 0.382 0.117 0.578zM9.467 30.478c0-0.156-0.023-0.312-0.086-0.46-0.047-0.133-0.125-0.25-0.226-0.351-0.101-0.094-0.219-0.164-0.359-0.219-0.304-0.101-0.64-0.101-0.937 0-0.141 0.055-0.265 0.125-0.367 0.219-0.101 0.101-0.179 0.219-0.226 0.351-0.109 0.297-0.109 0.624 0 0.921 0.047 0.125 0.125 0.25 0.226 0.343 0.101 0.101 0.226 0.172 0.367 0.219 0.297 0.101 0.632 0.101 0.937 0 0.14-0.047 0.258-0.117 0.359-0.219 0.101-0.094 0.179-0.219 0.226-0.343 0.062-0.148 0.086-0.304 0.086-0.46z"></path>
<path fill="#afb1b8" style="fill: var(--color2, #afb1b8)" d="M13.268 30.962l0.039 0.101c0.023-0.031 0.031-0.070 0.055-0.101 0.016-0.031 0.031-0.070 0.055-0.101l1.085-1.717c0.023-0.031 0.039-0.047 0.062-0.055 0.031-0.008 0.062-0.008 0.086-0.008h0.328v2.794h-0.382v-2.053c0-0.031 0-0.062 0-0.094s0-0.062 0-0.094l-1.093 1.741c-0.016 0.031-0.039 0.047-0.070 0.062-0.023 0.016-0.055 0.023-0.094 0.023h-0.055c-0.039 0-0.070-0.008-0.094-0.023-0.031-0.016-0.055-0.031-0.070-0.062l-1.124-1.748c0 0.031 0 0.062 0 0.101 0 0.031 0 0.062 0 0.086v2.053h-0.367v-2.786h0.32c0.031 0 0.062 0 0.094 0.008 0.023 0.008 0.047 0.031 0.055 0.055l1.116 1.717c0.016 0.031 0.039 0.070 0.055 0.101z"></path>
<path fill="#afb1b8" style="fill: var(--color2, #afb1b8)" d="M17.358 30.821v1.046h-0.429v-2.786h0.952c0.18-0.008 0.359 0.016 0.531 0.062 0.14 0.031 0.265 0.094 0.375 0.172 0.094 0.078 0.164 0.172 0.211 0.273 0.055 0.117 0.078 0.234 0.070 0.359 0.008 0.117-0.023 0.242-0.078 0.351-0.047 0.109-0.125 0.203-0.226 0.281-0.109 0.086-0.242 0.148-0.375 0.187-0.172 0.047-0.343 0.070-0.515 0.062l-0.515-0.008zM17.358 30.525h0.515c0.109 0 0.226-0.016 0.328-0.047 0.086-0.023 0.172-0.062 0.242-0.117 0.062-0.055 0.109-0.117 0.14-0.187 0.039-0.070 0.055-0.148 0.055-0.234 0-0.078-0.008-0.156-0.047-0.226-0.031-0.070-0.078-0.133-0.148-0.187-0.164-0.109-0.367-0.164-0.57-0.156h-0.515v1.155z"></path>
<path fill="#afb1b8" style="fill: var(--color2, #afb1b8)" d="M23.079 31.875h-0.336c-0.039 0-0.070-0.008-0.094-0.031-0.023-0.016-0.047-0.039-0.055-0.062l-0.289-0.671h-1.459l-0.297 0.671c-0.016 0.023-0.031 0.047-0.055 0.062-0.023 0.023-0.062 0.031-0.094 0.031h-0.336l1.272-2.794h0.445l1.296 2.794zM20.972 30.837h1.202l-0.507-1.14c-0.039-0.086-0.070-0.172-0.094-0.258l-0.055 0.14c-0.016 0.047-0.031 0.086-0.047 0.117l-0.5 1.139z"></path>
<path fill="#afb1b8" style="fill: var(--color2, #afb1b8)" d="M24.913 29.089c0.031 0.016 0.047 0.031 0.070 0.055l1.858 2.107c0-0.039 0-0.070 0-0.101s0-0.062 0-0.094v-1.975h0.382v2.794h-0.211c-0.031 0-0.062-0.008-0.094-0.016-0.023-0.016-0.047-0.031-0.062-0.055l-1.865-2.107c0.008 0.031 0.008 0.070 0 0.101 0 0.031 0 0.055 0 0.086v1.99h-0.375v-2.794h0.226c0.023 0 0.047 0 0.070 0.008z"></path>
<path fill="#afb1b8" style="fill: var(--color2, #afb1b8)" d="M30.361 30.759v1.116h-0.429v-1.116l-1.179-1.678h0.382c0.039 0 0.070 0.008 0.094 0.023s0.039 0.039 0.055 0.062l0.741 1.085c0.031 0.047 0.055 0.086 0.078 0.133 0.016 0.039 0.031 0.078 0.047 0.117l0.055-0.125c0.023-0.039 0.047-0.086 0.078-0.125l0.726-1.093c0.016-0.023 0.031-0.039 0.055-0.062 0.023-0.016 0.055-0.023 0.086-0.023h0.39l-1.179 1.686z"></path>
<path fill="#afb1b8" style="fill: var(--color2, #afb1b8)" d="M13.058 24.39c0.18 0.023 0.367 0.039 0.562 0.055 2.864-1.116 5.299-2.942 6.978-5.253 1.686-2.31 2.552-4.995 2.482-7.727l-3.161-2.755c0.64 2.911 0.343 5.916-0.874 8.687-1.21 2.771-3.286 5.19-5.986 6.993z"></path>
<path fill="#afb1b8" style="fill: var(--color2, #afb1b8)" d="M11.926 24.265l0.086 0.016c2.888-1.803 5.097-4.308 6.322-7.204 1.233-2.896 1.436-6.049 0.585-9.046l-4.503-3.918c1.819 3.223 2.552 6.821 2.115 10.388s-2.037 6.954-4.605 9.764z"></path>
<path fill="#afb1b8" style="fill: var(--color2, #afb1b8)" d="M27.208 14.689c-0.765 3.005-2.622 5.713-5.299 7.719-0.78 0.593-1.623 1.116-2.521 1.577 2.178-0.562 4.183-1.545 5.861-2.88 1.67-1.335 2.966-2.989 3.785-4.831l-1.826-1.584z"></path>
<path fill="#afb1b8" style="fill: var(--color2, #afb1b8)" d="M26.49 14.252l-2.599-2.263c-0.047 2.576-0.89 5.097-2.443 7.298-1.553 2.193-3.746 3.996-6.369 5.206h0.016c0.578 0 1.163-0.031 1.74-0.094 2.451-0.866 4.613-2.248 6.299-4.020s2.841-3.879 3.356-6.127z"></path>
<path fill="#afb1b8" style="fill: var(--color2, #afb1b8)" d="M12.3 2.466l-3.106-2.708c-2.771 0.937-5.159 2.576-6.845 4.706s-2.591 4.652-2.607 7.235v0c0.016 2.857 1.124 5.627 3.145 7.875 2.029 2.256 4.862 3.848 8.055 4.542 2.849-3.013 4.511-6.743 4.761-10.638 0.242-3.887-0.952-7.75-3.403-11.013z"></path>
<path fill="#afb1b8" style="fill: var(--color2, #afb1b8)" d="M33.67 13.83c-0.016-3.387-1.569-6.634-4.332-9.030-2.755-2.396-6.494-3.746-10.396-3.762-1.803 0-3.59 0.289-5.268 0.859l19.013 16.515c0.648-1.459 0.983-3.013 0.983-4.581z"></path>
</symbol>
<symbol id="icon-twitter" viewBox="0 0 32 32">
<path fill="#afb1b8" style="fill: var(--color2, #afb1b8)" d="M32 6.064c-1.2 0.528-2.464 0.88-3.792 1.040 1.36-0.816 2.4-2.080 2.896-3.632-1.28 0.768-2.672 1.296-4.16 1.6-1.216-1.28-2.928-2.080-4.8-2.080-3.632 0-6.56 2.944-6.56 6.56 0 0.528 0.048 1.024 0.16 1.504-5.456-0.272-10.288-2.88-13.52-6.864-0.576 0.976-0.896 2.096-0.896 3.312 0 2.272 1.168 4.288 2.912 5.456-1.056-0.016-2.096-0.336-2.96-0.816 0 0.016 0 0.048 0 0.080 0 3.184 2.272 5.84 5.248 6.448-0.528 0.144-1.12 0.208-1.712 0.208-0.432 0-0.848-0.016-1.248-0.112 0.848 2.608 3.264 4.512 6.128 4.576-2.224 1.744-5.072 2.8-8.128 2.8-0.544 0-1.056-0.032-1.568-0.096 2.896 1.872 6.336 2.944 10.064 2.944 12.064 0 18.656-10 18.656-18.672 0-0.288 0-0.56-0.016-0.848 1.296-0.928 2.4-2.080 3.296-3.408z"></path>
</symbol>
<symbol id="icon-facebook" viewBox="0 0 32 32">
<path fill="#afb1b8" style="fill: var(--color2, #afb1b8)" d="M21.328 5.312h2.912v-5.088c-0.496-0.080-2.24-0.224-4.256-0.224-4.208 0-7.088 2.64-7.088 7.504v4.496h-4.656v5.68h4.656v14.32h5.696v-14.32h4.448l0.72-5.68h-5.168v-3.92c0-1.648 0.432-2.768 2.736-2.768z"></path>
</symbol>
<symbol id="icon-instagram" viewBox="0 0 32 32">
<path fill="#afb1b8" style="fill: var(--color2, #afb1b8)" d="M31.968 9.408c-0.080-1.712-0.352-2.88-0.752-3.888-0.4-1.072-1.024-2.032-1.856-2.848-0.8-0.8-1.76-1.44-2.832-1.84-1.008-0.384-2.176-0.672-3.872-0.736-1.712-0.080-2.256-0.096-6.608-0.096-4.336 0-4.88 0.016-6.592 0.080-1.696 0.080-2.864 0.352-3.888 0.752-1.072 0.4-2.032 1.024-2.832 1.84-0.816 0.816-1.44 1.776-1.84 2.832-0.4 1.024-0.672 2.192-0.752 3.888-0.080 1.712-0.096 2.256-0.096 6.608 0 4.336 0.016 4.88 0.096 6.592 0.080 1.696 0.352 2.864 0.736 3.888 0.416 1.072 1.040 2.032 1.856 2.832 0.8 0.816 1.776 1.44 2.832 1.84 1.024 0.4 2.176 0.672 3.888 0.752 1.696 0.064 2.24 0.080 6.592 0.080 4.336 0 4.88-0.016 6.592-0.080 1.696-0.080 2.864-0.352 3.888-0.752 2.144-0.832 3.84-2.528 4.672-4.672 0.4-1.024 0.672-2.192 0.752-3.888 0.064-1.712 0.096-2.256 0.096-6.592 0-4.352-0.016-4.896-0.080-6.592zM29.072 22.464c-0.064 1.568-0.32 2.4-0.544 2.976-0.544 1.392-1.648 2.496-3.040 3.040-0.56 0.208-1.408 0.48-2.96 0.544-1.696 0.080-2.208 0.096-6.464 0.096-4.272 0-4.784-0.016-6.464-0.096-1.568-0.064-2.416-0.336-2.976-0.544-0.688-0.256-1.328-0.672-1.84-1.2-0.528-0.528-0.928-1.152-1.184-1.84-0.224-0.56-0.496-1.408-0.56-2.976-0.080-1.68-0.096-2.192-0.096-6.464 0-4.256 0.016-4.768 0.096-6.464 0.064-1.552 0.336-2.4 0.56-2.96 0.256-0.688 0.656-1.328 1.2-1.84 0.512-0.528 1.136-0.944 1.824-1.2 0.576-0.208 1.424-0.48 2.976-0.544 1.68-0.080 2.192-0.096 6.464-0.096s4.784 0.016 6.464 0.096c1.568 0.064 2.4 0.336 2.976 0.544 0.688 0.256 1.312 0.672 1.824 1.2 0.544 0.512 0.944 1.152 1.2 1.84 0.224 0.56 0.48 1.408 0.544 2.96 0.080 1.696 0.096 2.208 0.096 6.464 0 4.272-0.016 4.784-0.096 6.464z"></path>
<path fill="#afb1b8" style="fill: var(--color2, #afb1b8)" d="M16.048 7.776c-4.528 0-8.224 3.68-8.224 8.224 0 4.528 3.696 8.208 8.224 8.208 4.544 0 8.224-3.68 8.224-8.208 0-4.544-3.68-8.224-8.224-8.224zM16.048 21.328c-2.944 0-5.328-2.384-5.328-5.328s2.384-5.344 5.328-5.344c2.944 0 5.328 2.4 5.328 5.344s-2.384 5.328-5.328 5.328z"></path>
<path fill="#afb1b8" style="fill: var(--color2, #afb1b8)" d="M26.512 7.456c0 1.056-0.848 1.92-1.92 1.92-1.056 0-1.92-0.864-1.92-1.92 0-1.072 0.864-1.92 1.92-1.92 1.072 0 1.92 0.848 1.92 1.92z"></path>
</symbol>
<symbol id="icon-linkedin" viewBox="0 0 32 32">
<path fill="#afb1b8" style="fill: var(--color2, #afb1b8)" d="M31.984 32v-0.016h0.016v-11.728c0-5.744-1.248-10.16-7.952-10.16-3.232 0-5.392 1.76-6.272 3.44h-0.096v-2.912h-6.368v21.36h6.624v-10.576c0-2.784 0.528-5.472 3.984-5.472 3.392 0 3.44 3.184 3.44 5.648v10.416h6.624z"></path>
<path fill="#afb1b8" style="fill: var(--color2, #afb1b8)" d="M0.528 10.624h6.624v21.36h-6.624v-21.36z"></path>
<path fill="#afb1b8" style="fill: var(--color2, #afb1b8)" d="M3.84 0c-2.128 0-3.84 1.712-3.84 3.84 0 2.112 1.712 3.872 3.84 3.872 2.112 0 3.84-1.76 3.84-3.872 0-2.128-1.728-3.84-3.84-3.84v0z"></path>
</symbol>
<symbol id="icon-mailHeader" viewBox="0 0 43 32">
<path fill="#2196f3" style="fill: var(--color3, #2196f3)" d="M38.667 0h-34.667c-2.213 0-4 1.787-4 4v24c0 2.187 1.787 4 4 4h34.667c2.187 0 4-1.813 4-4v-24c0-2.213-1.813-4-4-4zM38.667 2.667c0.16 0 0.347 0.027 0.507 0.080l-17.84 15.467-17.867-15.467c0.16-0.053 0.347-0.080 0.533-0.080h34.667zM38.667 29.333h-34.667c-0.747 0-1.333-0.613-1.333-1.333v-22.427l17.787 15.413c0.24 0.213 0.56 0.347 0.88 0.347 0.293 0 0.613-0.133 0.853-0.347l17.813-15.413v22.427c0 0.72-0.613 1.333-1.333 1.333z"></path>
</symbol>
</defs>
</svg>
