<svg xmlns="http://www.w3.org/2000/svg" width="94" height="44" fill="none"><path fill="#AFB1B8" d="M47.42 20.4c-.44-.59-.66-1.28-.6-1.99v-2.88c0-.88.2-1.55.6-2.01.4-.46 1.09-.69 2.06-.69.92 0 1.57.2 1.96.59.42.5.62 1.11.57 1.72v.68h-1.64v-.69c.01-.22-.01-.45-.05-.67a.637.637 0 0 0-.23-.4.935.935 0 0 0-.59-.15.98.98 0 0 0-.63.16c-.14.12-.24.27-.27.44-.05.24-.07.47-.07.71v3.5c-.02.34.05.68.21.99.09.1.2.18.33.23.13.05.28.07.43.06.21.01.41-.04.58-.16.13-.11.22-.26.24-.43.04-.23.06-.46.05-.7V18h1.64v.65c.05.64-.15 1.28-.56 1.81-.38.43-1.02.65-1.97.65-.94 0-1.66-.23-2.06-.71ZM54.25 20.43c-.41-.45-.62-1.1-.62-1.97v-3.03c0-.85.21-1.5.62-1.94.42-.44 1.11-.66 2.08-.66s1.66.22 2.07.66c.41.44.63 1.09.63 1.94v3.03c0 .86-.22 1.52-.64 1.97-.42.45-1.1.68-2.06.68-.95 0-1.66-.23-2.08-.68Zm2.85-.72c.14-.29.21-.59.19-.9v-3.72c.02-.3-.04-.6-.19-.88-.08-.1-.2-.19-.34-.24-.13-.05-.28-.07-.43-.05a.869.869 0 0 0-.77.29c-.15.28-.22.58-.2.88v3.74c-.02.3.05.61.2.89.1.1.21.17.35.23.13.05.27.07.42.07.14 0 .29-.02.42-.07.13-.06.25-.13.35-.23v-.01ZM61 12.92h1.77l1.32 5.59 1.36-5.59h1.72l.17 8.08h-1.27l-.13-5.62L64.63 21h-1.02l-1.36-5.64-.13 5.64h-1.28l.16-8.08ZM69.33 12.92h2.75c1.58 0 2.38.76 2.38 2.29 0 1.47-.84 2.2-2.51 2.2h-.94V21h-1.69l.01-8.08Zm2.35 3.45c.16.02.33.01.5-.04.16-.04.31-.12.43-.21.2-.28.28-.6.24-.92.01-.24-.01-.49-.08-.73a.477.477 0 0 0-.12-.22.596.596 0 0 0-.22-.16c-.23-.1-.49-.15-.75-.13h-.66v2.41h.66ZM76.9 12.92h1.83L80.6 21h-1.58l-.37-1.87h-1.63L76.64 21h-1.61l1.87-8.08Zm1.56 5.28-.63-3.39-.64 3.39h1.27ZM82.11 12.92h1.19l2.28 4.61v-4.61h1.41V21h-1.13l-2.29-4.81V21h-1.46v-8.08ZM90.29 17.92l-1.89-4.99h1.59l1.16 3.2 1.08-3.2h1.56l-1.87 4.99V21h-1.63v-3.08ZM50.04 24.53v.42h-1.38v3.28h-.58v-3.28h-1.4v-.42h3.36ZM54.39 28.23h-.45c-.05 0-.09-.01-.13-.03a.276.276 0 0 1-.07-.09l-.4-.88h-1.92l-.41.88c-.01.04-.03.07-.06.1s-.08.04-.12.04h-.45l1.7-3.71h.59l1.72 3.69Zm-2.82-1.37h1.61l-.68-1.51c-.05-.12-.09-.23-.13-.35-.02.07-.04.14-.06.2l-.06.15-.68 1.51ZM57.32 27.87h.32c.09-.01.18-.03.27-.05.08-.01.16-.04.24-.06.08-.03.15-.06.23-.1v-.83H57.65a.138.138 0 0 1-.04-.03l-.03-.03c0-.01-.01-.02-.01-.03v-.29h1.32v1.42a2.211 2.211 0 0 1-.71.3c-.14.04-.29.06-.43.08-.16.01-.33.02-.49.02-.3 0-.59-.04-.86-.14-.26-.08-.49-.22-.68-.38-.19-.17-.34-.37-.44-.59a1.9 1.9 0 0 1-.16-.77c0-.26.05-.52.16-.77.1-.22.24-.42.44-.59.19-.17.42-.3.68-.38.29-.1.6-.14.91-.14.15 0 .31.01.47.03.14.02.27.05.4.1.12.03.24.08.34.14.11.06.21.12.3.2l-.17.22a.12.12 0 0 1-.05.05c-.02.02-.05.02-.08.02-.04 0-.07-.01-.1-.02-.05-.03-.11-.06-.17-.09a.943.943 0 0 0-.23-.1c-.1-.04-.2-.07-.31-.08-.14-.03-.29-.04-.43-.04-.23 0-.45.04-.66.11-.19.06-.36.16-.5.29-.14.13-.24.29-.31.46-.15.4-.15.83 0 1.23.07.18.19.34.34.47.14.13.31.23.49.29.22.07.45.09.68.08ZM62.73 27.81h1.86v.42h-2.43v-3.7h.58l-.01 3.28ZM66.52 28.23h-.59v-3.7h.59v3.7ZM68.68 24.54c.03.02.06.04.08.07l2.49 2.79a.285.285 0 0 1 0-.13V24.51h.5v3.72h-.29c-.04 0-.08 0-.12-.02a.36.36 0 0 1-.1-.07l-2.48-2.79v2.88h-.48v-3.7h.3c.03 0 .07 0 .1.01ZM76.03 24.53v.4h-2.06v1.23h1.67v.39h-1.67v1.26h2.06v.41h-2.66v-3.69h2.66ZM15.16 1.65l25.79 6.32v22.16l-25.79-6.32V1.65ZM13.5-.24v25.13l29.1 7.13V6.9L13.5-.24Z"/><path fill="#AFB1B8" d="M29.1 43.69 0 36.55V11.42l29.1 7.14v25.13Z"/><path fill="#AFB1B8" d="m13.98 1.37 25.46 6.24-10.82 9.35-25.47-6.25 10.83-9.34ZM13.5-.24 0 11.42l29.1 7.14L42.6 6.9 13.5-.24ZM30.74 42.27 42.6 32.03l-11.86-2.92v13.16Z"/></svg>