<svg xmlns="http://www.w3.org/2000/svg" width="20" height="20" fill="none"><defs><clipPath id="a"><path fill="#fff" fill-opacity="0" d="M0 0h20v20H0z"/></clipPath></defs><path fill="none" d="M0 0h20v20H0z"/><g clip-path="url(#a)"><path fill="#AFB1B8" d="M20 3.79c-.75.33-1.54.55-2.37.65.85-.51 1.5-1.3 1.81-2.27-.8.48-1.67.81-2.6 1a4.14 4.14 0 0 0-3-1.3 4.1 4.1 0 0 0-4.1 4.1c0 .33.03.64.1.94a11.6 11.6 0 0 1-8.45-4.29c-.36.61-.56 1.31-.56 2.07 0 1.42.73 2.68 1.82 3.41-.66-.01-1.31-.21-1.85-.51v.05a4.12 4.12 0 0 0 3.28 4.03c-.33.09-.7.13-1.07.13-.27 0-.53-.01-.78-.07a4.136 4.136 0 0 0 3.83 2.86A8.242 8.242 0 0 1 0 16.28c1.81 1.17 3.96 1.84 6.29 1.84 7.54 0 11.66-6.25 11.66-11.67 0-.18 0-.35-.01-.53.81-.58 1.5-1.3 2.06-2.13Z"/></g></svg>